<svg id="Layer_1" data-name="Layer 1" xmlns="http://www.w3.org/2000/svg" viewBox="0 0 464 464">
  <defs>
    <style>
      .cls-1, .cls-3 {
        fill: #171717;
      }

      .cls-1 {
        stroke: #171717;
      }

      .cls-1, .cls-2 {
        stroke-miterlimit: 10;
      }

      .cls-2 {
        fill: #fff;
        stroke: #fff;
      }
    </style>
  </defs>
  <circle class="cls-1" cx="232" cy="232" r="231.5"/>
  <rect class="cls-2" x="201.73" y="389.88" width="158.71" height="28.62" transform="translate(290.4 -216.39) rotate(45.62)"/>
  <rect class="cls-2" x="205.14" y="386.27" width="206.44" height="21.72" transform="translate(293.55 -238.02) rotate(45.62)"/>
  <rect class="cls-1" x="269.95" y="449.94" width="73.48" height="34.91" transform="translate(-35.48 -164.93) rotate(5.65)"/>
  <rect class="cls-1" x="188.31" y="335.77" width="79.59" height="34.91" transform="translate(487.11 -28.38) rotate(87.28)"/>
  <rect class="cls-2" x="314.02" y="497.15" width="9.19" height="25.72" transform="translate(745.62 54.4) rotate(90)"/>
  <rect class="cls-2" x="393.55" y="393.18" width="107.71" height="22.05" transform="translate(-238.36 282.33) rotate(-43.53)"/>
  <rect class="cls-2" x="292.25" y="486.65" width="108.28" height="22.05" transform="translate(-330.52 238.46) rotate(-43.53)"/>
  <rect class="cls-2" x="108.05" y="427.36" width="244.62" height="22.05" transform="translate(306.51 -167.57) rotate(46.47)"/>
  <rect class="cls-2" x="275.75" y="311.1" width="158.71" height="35.4" transform="translate(265.88 -292.11) rotate(46.47)"/>
  <rect class="cls-2" x="241.36" y="347.28" width="206.44" height="21.72" transform="translate(283.88 -275.35) rotate(46.47)"/>
  <rect class="cls-1" x="263.93" y="256.79" width="93.98" height="37.61" transform="translate(-58.81 -162.09) rotate(4.81)"/>
  <rect class="cls-2" x="111.95" y="270.35" width="243.34" height="22.05" transform="translate(-212.55 101.3) rotate(-43.53)"/>
  <rect class="cls-2" x="307.03" y="209.73" width="9.19" height="25.72" transform="translate(451.21 -226.03) rotate(90)"/>
  <g>
    <rect class="cls-3" x="322.08" y="309.57" width="24.72" height="8.19"/>
    <path class="cls-3" d="M429.3,447.07v7.18H405.58v-7.18H429.3m1-1H404.58v9.18H430.3v-9.18Z" transform="translate(-83 -137)"/>
  </g>
  <g>
    <rect class="cls-3" x="219.75" y="398.31" width="24.72" height="8.19"/>
    <path class="cls-3" d="M327,535.81V543H303.25v-7.19H327m1-1H302.25V544H328v-9.19Z" transform="translate(-83 -137)"/>
  </g>
  <rect class="cls-1" x="384.51" y="354.64" width="54.83" height="27.85" transform="translate(671.19 -202.46) rotate(86.44)"/>
  <rect class="cls-2" x="268.4" y="277.85" width="256.47" height="22.05" transform="translate(249.86 -334.65) rotate(46.47)"/>
  <g>
    <rect class="cls-3" x="204.71" y="49.5" width="50.44" height="15.2"/>
    <path class="cls-3" d="M337.65,187v14.2H288.21V187h49.44m1-1H287.21v16.2h51.44V186Z" transform="translate(-83 -137)"/>
  </g>
</svg>
